<?xml version="1.0" encoding="UTF-8" standalone="no"?>
<!DOCTYPE svg PUBLIC "-//W3C//DTD SVG 1.1//EN"
 "http://www.w3.org/Graphics/SVG/1.1/DTD/svg11.dtd">
<!-- Generated by graphviz version 7.1.0 (0)
 -->
<!-- Pages: 1 -->
<svg width="19311pt" height="566pt"
 viewBox="0.00 0.00 19310.79 566.00" xmlns="http://www.w3.org/2000/svg" xmlns:xlink="http://www.w3.org/1999/xlink">
<g id="graph0" class="graph" transform="scale(1 1) rotate(0) translate(4 562)">
<polygon fill="white" stroke="none" points="-4,4 -4,-562 19306.79,-562 19306.79,4 -4,4"/>
<!-- 0 -->
<g id="node1" class="node">
<title>0</title>
<ellipse fill="none" stroke="black" cx="9494.1" cy="-540" rx="148.67" ry="18"/>
<text text-anchor="middle" x="9494.1" y="-536.3" font-family="Times,serif" font-size="14.00">Chat Conversation Started&lt;1</text>
</g>
<!-- 1 -->
<g id="node2" class="node">
<title>1</title>
<ellipse fill="none" stroke="black" cx="9038.1" cy="-453" rx="92.08" ry="18"/>
<text text-anchor="middle" x="9038.1" y="-449.3" font-family="Times,serif" font-size="14.00">Wallet Opened&lt;1</text>
</g>
<!-- 0&#45;&gt;1 -->
<g id="edge1" class="edge">
<title>0&#45;&gt;1</title>
<path fill="none" stroke="#ff0000" d="M9415.45,-524.34C9331.05,-508.61 9197.9,-483.79 9114.41,-468.22"/>
<polygon fill="#ff0000" stroke="#ff0000" points="9115.18,-464.81 9104.71,-466.42 9113.9,-471.69 9115.18,-464.81"/>
<text text-anchor="middle" x="9306.6" y="-492.8" font-family="Times,serif" font-size="14.00">yes</text>
</g>
<!-- 2 -->
<g id="node3" class="node">
<title>2</title>
<ellipse fill="none" stroke="black" cx="9950.1" cy="-453" rx="115.08" ry="18"/>
<text text-anchor="middle" x="9950.1" y="-449.3" font-family="Times,serif" font-size="14.00">Transaction Refund&lt;1</text>
</g>
<!-- 0&#45;&gt;2 -->
<g id="edge2" class="edge">
<title>0&#45;&gt;2</title>
<path fill="none" stroke="#0000ff" d="M9572.75,-524.34C9654.84,-509.04 9783.04,-485.14 9866.82,-469.52"/>
<polygon fill="#0000ff" stroke="#0000ff" points="9867.4,-472.98 9876.59,-467.7 9866.12,-466.09 9867.4,-472.98"/>
<text text-anchor="middle" x="9791.1" y="-492.8" font-family="Times,serif" font-size="14.00">no, missing</text>
</g>
<!-- 3 -->
<g id="node4" class="node">
<title>3</title>
<ellipse fill="none" stroke="black" cx="8772.1" cy="-366" rx="100.18" ry="18"/>
<text text-anchor="middle" x="8772.1" y="-362.3" font-family="Times,serif" font-size="14.00">leaf=&#45;0.571314752</text>
</g>
<!-- 1&#45;&gt;3 -->
<g id="edge3" class="edge">
<title>1&#45;&gt;3</title>
<path fill="none" stroke="#ff0000" d="M8991.46,-437.1C8946.68,-422.79 8878.87,-401.12 8830.51,-385.66"/>
<polygon fill="#ff0000" stroke="#ff0000" points="8831.62,-382.34 8821.03,-382.63 8829.49,-389.01 8831.62,-382.34"/>
<text text-anchor="middle" x="8933.6" y="-405.8" font-family="Times,serif" font-size="14.00">yes</text>
</g>
<!-- 4 -->
<g id="node5" class="node">
<title>4</title>
<ellipse fill="none" stroke="black" cx="9038.1" cy="-366" rx="148.37" ry="18"/>
<text text-anchor="middle" x="9038.1" y="-362.3" font-family="Times,serif" font-size="14.00">Account Setup Profile Skip&lt;1</text>
</g>
<!-- 1&#45;&gt;4 -->
<g id="edge4" class="edge">
<title>1&#45;&gt;4</title>
<path fill="none" stroke="#0000ff" d="M9038.1,-434.8C9038.1,-423.58 9038.1,-408.67 9038.1,-395.69"/>
<polygon fill="#0000ff" stroke="#0000ff" points="9041.6,-395.98 9038.1,-385.98 9034.6,-395.98 9041.6,-395.98"/>
<text text-anchor="middle" x="9079.1" y="-405.8" font-family="Times,serif" font-size="14.00">no, missing</text>
</g>
<!-- 5 -->
<g id="node16" class="node">
<title>5</title>
<ellipse fill="none" stroke="black" cx="9950.1" cy="-366" rx="746.27" ry="18"/>
<text text-anchor="middle" x="9950.1" y="-362.3" font-family="Times,serif" font-size="14.00">device_model:{0,1,2,3,4,5,6,7,8,9,10,11,12,13,14,15,16,17,18,19,20,21,22,23,24,25,26,27,28,29,30,31,32,33,34,35,36,37,38,39,40,41,42,43,44,165,169,240}</text>
</g>
<!-- 2&#45;&gt;5 -->
<g id="edge15" class="edge">
<title>2&#45;&gt;5</title>
<path fill="none" stroke="#ff0000" d="M9950.1,-434.8C9950.1,-423.58 9950.1,-408.67 9950.1,-395.69"/>
<polygon fill="#ff0000" stroke="#ff0000" points="9953.6,-395.98 9950.1,-385.98 9946.6,-395.98 9953.6,-395.98"/>
<text text-anchor="middle" x="9962.6" y="-405.8" font-family="Times,serif" font-size="14.00">yes</text>
</g>
<!-- 6 -->
<g id="node17" class="node">
<title>6</title>
<ellipse fill="none" stroke="black" cx="10811.1" cy="-366" rx="96.68" ry="18"/>
<text text-anchor="middle" x="10811.1" y="-362.3" font-family="Times,serif" font-size="14.00">leaf=0.540983617</text>
</g>
<!-- 2&#45;&gt;6 -->
<g id="edge16" class="edge">
<title>2&#45;&gt;6</title>
<path fill="none" stroke="#0000ff" d="M10053.85,-444.94C10199.6,-434.5 10473.14,-413.01 10705.1,-384 10713.33,-382.97 10721.9,-381.79 10730.45,-380.53"/>
<polygon fill="#0000ff" stroke="#0000ff" points="10730.77,-384.02 10740.14,-379.07 10729.73,-377.1 10730.77,-384.02"/>
<text text-anchor="middle" x="10581.1" y="-405.8" font-family="Times,serif" font-size="14.00">no, missing</text>
</g>
<!-- 7 -->
<g id="node6" class="node">
<title>7</title>
<ellipse fill="none" stroke="black" cx="4478.1" cy="-279" rx="4478.21" ry="18"/>
<text text-anchor="middle" x="4478.1" y="-275.3" font-family="Times,serif" font-size="14.00">device_model:{0,1,2,3,4,5,6,7,8,9,10,11,12,13,14,15,16,17,18,19,20,21,22,23,24,25,26,27,28,29,30,31,32,33,34,35,36,37,38,39,40,41,42,43,44,45,46,47,48,49,50,51,52,53,54,55,56,57,58,59,60,61,62,63,64,65,66,67,68,69,70,71,72,73,74,75,76,77,78,79,80,81,82,83,84,85,86,87,88,89,90,91,92,93,94,95,96,97,98,99,100,101,102,103,104,105,106,107,108,109,110,111,112,113,114,115,116,117,118,119,120,121,122,123,124,125,126,127,128,129,130,131,132,133,134,135,136,137,138,139,140,141,142,143,144,145,146,147,148,149,150,151,152,153,154,155,156,157,158,159,160,161,162,163,164,165,166,167,168,169,170,171,172,173,174,175,176,177,178,179,180,181,182,183,184,185,186,187,188,189,190,191,192,193,194,195,196,197,198,199,200,201,202,203,204,205,206,207,208,209,210,211,212,213,214,215,216,217,218,219,220,221,222,223,224,225,226,227,228,229,230,231,232,233,234,235,236,237,238,239,240,242,243,244,246,248}</text>
</g>
<!-- 4&#45;&gt;7 -->
<g id="edge5" class="edge">
<title>4&#45;&gt;7</title>
<path fill="none" stroke="#ff0000" d="M8936.03,-352.56C8917.77,-350.73 8898.89,-349.1 8881.1,-348 8453.19,-321.58 7555.07,-305.26 6680.9,-295.26"/>
<polygon fill="#ff0000" stroke="#ff0000" points="6681.2,-291.76 6671.16,-295.15 6681.12,-298.76 6681.2,-291.76"/>
<text text-anchor="middle" x="8446.6" y="-318.8" font-family="Times,serif" font-size="14.00">yes</text>
</g>
<!-- 8 -->
<g id="node7" class="node">
<title>8</title>
<ellipse fill="none" stroke="black" cx="9122.1" cy="-279" rx="148.37" ry="18"/>
<text text-anchor="middle" x="9122.1" y="-275.3" font-family="Times,serif" font-size="14.00">Account Setup Profile Skip&lt;2</text>
</g>
<!-- 4&#45;&gt;8 -->
<g id="edge6" class="edge">
<title>4&#45;&gt;8</title>
<path fill="none" stroke="#0000ff" d="M9055.1,-347.8C9067.17,-335.59 9083.57,-318.99 9097.12,-305.28"/>
<polygon fill="#0000ff" stroke="#0000ff" points="9099.53,-307.82 9104.07,-298.25 9094.55,-302.9 9099.53,-307.82"/>
<text text-anchor="middle" x="9127.1" y="-318.8" font-family="Times,serif" font-size="14.00">no, missing</text>
</g>
<!-- 11 -->
<g id="node8" class="node">
<title>11</title>
<ellipse fill="none" stroke="black" cx="4361.1" cy="-192" rx="51.99" ry="18"/>
<text text-anchor="middle" x="4361.1" y="-188.3" font-family="Times,serif" font-size="14.00">Order&lt;1</text>
</g>
<!-- 7&#45;&gt;11 -->
<g id="edge7" class="edge">
<title>7&#45;&gt;11</title>
<path fill="none" stroke="#ff0000" d="M4454.14,-260.59C4436.1,-247.49 4411.23,-229.42 4391.75,-215.26"/>
<polygon fill="#ff0000" stroke="#ff0000" points="4394.04,-212.6 4383.89,-209.55 4389.92,-218.26 4394.04,-212.6"/>
<text text-anchor="middle" x="4436.1" y="-231.8" font-family="Times,serif" font-size="14.00">no</text>
</g>
<!-- 12 -->
<g id="node9" class="node">
<title>12</title>
<ellipse fill="none" stroke="black" cx="4531.1" cy="-192" rx="100.18" ry="18"/>
<text text-anchor="middle" x="4531.1" y="-188.3" font-family="Times,serif" font-size="14.00">leaf=&#45;0.451239705</text>
</g>
<!-- 7&#45;&gt;12 -->
<g id="edge8" class="edge">
<title>7&#45;&gt;12</title>
<path fill="none" stroke="#0000ff" d="M4488.83,-260.8C4496.16,-249.05 4506.01,-233.24 4514.37,-219.84"/>
<polygon fill="#0000ff" stroke="#0000ff" points="4517.27,-221.8 4519.59,-211.46 4511.33,-218.09 4517.27,-221.8"/>
<text text-anchor="middle" x="4552.6" y="-231.8" font-family="Times,serif" font-size="14.00">yes, missing</text>
</g>
<!-- 13 -->
<g id="node12" class="node">
<title>13</title>
<ellipse fill="none" stroke="black" cx="8515.1" cy="-192" rx="500.41" ry="18"/>
<text text-anchor="middle" x="8515.1" y="-188.3" font-family="Times,serif" font-size="14.00">user_state:{0,1,2,3,5,6,7,8,9,10,11,12,13,14,15,16,17,18,19,20,21,22,23,24,25,26,27,28,29,30,31,32,33}</text>
</g>
<!-- 8&#45;&gt;13 -->
<g id="edge11" class="edge">
<title>8&#45;&gt;13</title>
<path fill="none" stroke="#ff0000" d="M9027.59,-264.77C8925.53,-250.47 8762.16,-227.6 8647.37,-211.52"/>
<polygon fill="#ff0000" stroke="#ff0000" points="8647.96,-208.07 8637.57,-210.15 8646.99,-215 8647.96,-208.07"/>
<text text-anchor="middle" x="8867.6" y="-231.8" font-family="Times,serif" font-size="14.00">yes</text>
</g>
<!-- 14 -->
<g id="node13" class="node">
<title>14</title>
<ellipse fill="none" stroke="black" cx="9130.1" cy="-192" rx="96.68" ry="18"/>
<text text-anchor="middle" x="9130.1" y="-188.3" font-family="Times,serif" font-size="14.00">leaf=0.200000018</text>
</g>
<!-- 8&#45;&gt;14 -->
<g id="edge12" class="edge">
<title>8&#45;&gt;14</title>
<path fill="none" stroke="#0000ff" d="M9123.72,-260.8C9124.78,-249.58 9126.18,-234.67 9127.4,-221.69"/>
<polygon fill="#0000ff" stroke="#0000ff" points="9130.86,-222.26 9128.32,-211.97 9123.9,-221.6 9130.86,-222.26"/>
<text text-anchor="middle" x="9168.1" y="-231.8" font-family="Times,serif" font-size="14.00">no, missing</text>
</g>
<!-- 19 -->
<g id="node10" class="node">
<title>19</title>
<ellipse fill="none" stroke="black" cx="4254.1" cy="-105" rx="96.68" ry="18"/>
<text text-anchor="middle" x="4254.1" y="-101.3" font-family="Times,serif" font-size="14.00">leaf=0.150000006</text>
</g>
<!-- 11&#45;&gt;19 -->
<g id="edge9" class="edge">
<title>11&#45;&gt;19</title>
<path fill="none" stroke="#ff0000" d="M4340.98,-175.01C4324.85,-162.2 4301.98,-144.04 4283.76,-129.56"/>
<polygon fill="#ff0000" stroke="#ff0000" points="4286.43,-127.21 4276.42,-123.73 4282.07,-132.69 4286.43,-127.21"/>
<text text-anchor="middle" x="4326.6" y="-144.8" font-family="Times,serif" font-size="14.00">yes</text>
</g>
<!-- 20 -->
<g id="node11" class="node">
<title>20</title>
<ellipse fill="none" stroke="black" cx="4469.1" cy="-105" rx="100.18" ry="18"/>
<text text-anchor="middle" x="4469.1" y="-101.3" font-family="Times,serif" font-size="14.00">leaf=&#45;0.200000018</text>
</g>
<!-- 11&#45;&gt;20 -->
<g id="edge10" class="edge">
<title>11&#45;&gt;20</title>
<path fill="none" stroke="#0000ff" d="M4381.42,-175.01C4397.62,-162.26 4420.56,-144.2 4438.92,-129.76"/>
<polygon fill="#0000ff" stroke="#0000ff" points="4440.89,-132.66 4446.58,-123.72 4436.56,-127.16 4440.89,-132.66"/>
<text text-anchor="middle" x="4463.1" y="-144.8" font-family="Times,serif" font-size="14.00">no, missing</text>
</g>
<!-- 21 -->
<g id="node14" class="node">
<title>21</title>
<ellipse fill="none" stroke="black" cx="8404.1" cy="-105" rx="102.88" ry="18"/>
<text text-anchor="middle" x="8404.1" y="-101.3" font-family="Times,serif" font-size="14.00">leaf=0.0545454584</text>
</g>
<!-- 13&#45;&gt;21 -->
<g id="edge13" class="edge">
<title>13&#45;&gt;21</title>
<path fill="none" stroke="#ff0000" d="M8492.37,-173.59C8475.84,-160.94 8453.28,-143.66 8435.1,-129.73"/>
<polygon fill="#ff0000" stroke="#ff0000" points="8437.32,-127.02 8427.25,-123.72 8433.06,-132.58 8437.32,-127.02"/>
<text text-anchor="middle" x="8476.1" y="-144.8" font-family="Times,serif" font-size="14.00">no</text>
</g>
<!-- 22 -->
<g id="node15" class="node">
<title>22</title>
<ellipse fill="none" stroke="black" cx="8625.1" cy="-105" rx="100.18" ry="18"/>
<text text-anchor="middle" x="8625.1" y="-101.3" font-family="Times,serif" font-size="14.00">leaf=&#45;0.300000012</text>
</g>
<!-- 13&#45;&gt;22 -->
<g id="edge14" class="edge">
<title>13&#45;&gt;22</title>
<path fill="none" stroke="#0000ff" d="M8537.63,-173.59C8554.01,-160.94 8576.37,-143.66 8594.39,-129.73"/>
<polygon fill="#0000ff" stroke="#0000ff" points="8596.39,-132.61 8602.16,-123.73 8592.11,-127.07 8596.39,-132.61"/>
<text text-anchor="middle" x="8621.6" y="-144.8" font-family="Times,serif" font-size="14.00">yes, missing</text>
</g>
<!-- 9 -->
<g id="node18" class="node">
<title>9</title>
<ellipse fill="none" stroke="black" cx="9858.1" cy="-279" rx="149.47" ry="18"/>
<text text-anchor="middle" x="9858.1" y="-275.3" font-family="Times,serif" font-size="14.00">Chat Conversation Opened&lt;4</text>
</g>
<!-- 5&#45;&gt;9 -->
<g id="edge17" class="edge">
<title>5&#45;&gt;9</title>
<path fill="none" stroke="#ff0000" d="M9931.49,-347.8C9918.14,-335.47 9899.97,-318.68 9885.04,-304.89"/>
<polygon fill="#ff0000" stroke="#ff0000" points="9887.52,-302.42 9877.8,-298.2 9882.77,-307.56 9887.52,-302.42"/>
<text text-anchor="middle" x="9919.1" y="-318.8" font-family="Times,serif" font-size="14.00">no</text>
</g>
<!-- 10 -->
<g id="node19" class="node">
<title>10</title>
<ellipse fill="none" stroke="black" cx="14383.1" cy="-279" rx="149.47" ry="18"/>
<text text-anchor="middle" x="14383.1" y="-275.3" font-family="Times,serif" font-size="14.00">Chat Conversation Opened&lt;1</text>
</g>
<!-- 5&#45;&gt;10 -->
<g id="edge18" class="edge">
<title>5&#45;&gt;10</title>
<path fill="none" stroke="#0000ff" d="M10476.33,-352.88C10553.07,-351.19 10631.12,-349.52 10705.1,-348 12067.52,-320.07 13713.93,-291.46 14224.46,-282.7"/>
<polygon fill="#0000ff" stroke="#0000ff" points="14224.48,-286.2 14234.42,-282.53 14224.36,-279.21 14224.48,-286.2"/>
<text text-anchor="middle" x="12363.6" y="-318.8" font-family="Times,serif" font-size="14.00">yes, missing</text>
</g>
<!-- 15 -->
<g id="node20" class="node">
<title>15</title>
<ellipse fill="none" stroke="black" cx="9410.1" cy="-192" rx="97.48" ry="18"/>
<text text-anchor="middle" x="9410.1" y="-188.3" font-family="Times,serif" font-size="14.00">Calculator View&lt;2</text>
</g>
<!-- 9&#45;&gt;15 -->
<g id="edge19" class="edge">
<title>9&#45;&gt;15</title>
<path fill="none" stroke="#ff0000" d="M9780.32,-263.24C9698.24,-247.67 9569.63,-223.27 9487.64,-207.71"/>
<polygon fill="#ff0000" stroke="#ff0000" points="9488.36,-204.28 9477.88,-205.86 9487.05,-211.16 9488.36,-204.28"/>
<text text-anchor="middle" x="9673.6" y="-231.8" font-family="Times,serif" font-size="14.00">yes</text>
</g>
<!-- 16 -->
<g id="node21" class="node">
<title>16</title>
<ellipse fill="none" stroke="black" cx="9858.1" cy="-192" rx="108.58" ry="18"/>
<text text-anchor="middle" x="9858.1" y="-188.3" font-family="Times,serif" font-size="14.00">Add Vehicle Break&lt;1</text>
</g>
<!-- 9&#45;&gt;16 -->
<g id="edge20" class="edge">
<title>9&#45;&gt;16</title>
<path fill="none" stroke="#0000ff" d="M9858.1,-260.8C9858.1,-249.58 9858.1,-234.67 9858.1,-221.69"/>
<polygon fill="#0000ff" stroke="#0000ff" points="9861.6,-221.98 9858.1,-211.98 9854.6,-221.98 9861.6,-221.98"/>
<text text-anchor="middle" x="9899.1" y="-231.8" font-family="Times,serif" font-size="14.00">no, missing</text>
</g>
<!-- 17 -->
<g id="node34" class="node">
<title>17</title>
<ellipse fill="none" stroke="black" cx="14383.1" cy="-192" rx="96.68" ry="18"/>
<text text-anchor="middle" x="14383.1" y="-188.3" font-family="Times,serif" font-size="14.00">leaf=0.272727281</text>
</g>
<!-- 10&#45;&gt;17 -->
<g id="edge33" class="edge">
<title>10&#45;&gt;17</title>
<path fill="none" stroke="#ff0000" d="M14383.1,-260.8C14383.1,-249.58 14383.1,-234.67 14383.1,-221.69"/>
<polygon fill="#ff0000" stroke="#ff0000" points="14386.6,-221.98 14383.1,-211.98 14379.6,-221.98 14386.6,-221.98"/>
<text text-anchor="middle" x="14395.6" y="-231.8" font-family="Times,serif" font-size="14.00">yes</text>
</g>
<!-- 18 -->
<g id="node35" class="node">
<title>18</title>
<ellipse fill="none" stroke="black" cx="18930.1" cy="-192" rx="164.37" ry="18"/>
<text text-anchor="middle" x="18930.1" y="-188.3" font-family="Times,serif" font-size="14.00">Add Payment Method Success&lt;2</text>
</g>
<!-- 10&#45;&gt;18 -->
<g id="edge34" class="edge">
<title>10&#45;&gt;18</title>
<path fill="none" stroke="#0000ff" d="M14529.88,-275.26C15207.24,-262.59 18029.15,-209.84 18757.8,-196.22"/>
<polygon fill="#0000ff" stroke="#0000ff" points="18757.71,-199.72 18767.64,-196.04 18757.58,-192.72 18757.71,-199.72"/>
<text text-anchor="middle" x="16969.1" y="-231.8" font-family="Times,serif" font-size="14.00">no, missing</text>
</g>
<!-- 23 -->
<g id="node22" class="node">
<title>23</title>
<ellipse fill="none" stroke="black" cx="9084.1" cy="-105" rx="149.47" ry="18"/>
<text text-anchor="middle" x="9084.1" y="-101.3" font-family="Times,serif" font-size="14.00">Chat Conversation Opened&lt;1</text>
</g>
<!-- 15&#45;&gt;23 -->
<g id="edge21" class="edge">
<title>15&#45;&gt;23</title>
<path fill="none" stroke="#ff0000" d="M9355.54,-176.77C9300.76,-162.49 9216.09,-140.41 9155.89,-124.72"/>
<polygon fill="#ff0000" stroke="#ff0000" points="9156.97,-121.38 9146.41,-122.25 9155.21,-128.16 9156.97,-121.38"/>
<text text-anchor="middle" x="9279.6" y="-144.8" font-family="Times,serif" font-size="14.00">yes</text>
</g>
<!-- 24 -->
<g id="node23" class="node">
<title>24</title>
<ellipse fill="none" stroke="black" cx="9410.1" cy="-105" rx="158.67" ry="18"/>
<text text-anchor="middle" x="9410.1" y="-101.3" font-family="Times,serif" font-size="14.00">user_state:{0,1,2,3,4,5,6,7,8,9}</text>
</g>
<!-- 15&#45;&gt;24 -->
<g id="edge22" class="edge">
<title>15&#45;&gt;24</title>
<path fill="none" stroke="#0000ff" d="M9410.1,-173.8C9410.1,-162.58 9410.1,-147.67 9410.1,-134.69"/>
<polygon fill="#0000ff" stroke="#0000ff" points="9413.6,-134.98 9410.1,-124.98 9406.6,-134.98 9413.6,-134.98"/>
<text text-anchor="middle" x="9451.1" y="-144.8" font-family="Times,serif" font-size="14.00">no, missing</text>
</g>
<!-- 25 -->
<g id="node28" class="node">
<title>25</title>
<ellipse fill="none" stroke="black" cx="9750.1" cy="-105" rx="163.27" ry="18"/>
<text text-anchor="middle" x="9750.1" y="-101.3" font-family="Times,serif" font-size="14.00">Subscription Premium Renew&lt;1</text>
</g>
<!-- 16&#45;&gt;25 -->
<g id="edge27" class="edge">
<title>16&#45;&gt;25</title>
<path fill="none" stroke="#ff0000" d="M9836.51,-174C9820.57,-161.46 9798.66,-144.22 9780.89,-130.23"/>
<polygon fill="#ff0000" stroke="#ff0000" points="9783.24,-127.63 9773.22,-124.19 9778.91,-133.13 9783.24,-127.63"/>
<text text-anchor="middle" x="9823.6" y="-144.8" font-family="Times,serif" font-size="14.00">yes</text>
</g>
<!-- 26 -->
<g id="node29" class="node">
<title>26</title>
<ellipse fill="none" stroke="black" cx="14347.1" cy="-105" rx="4416.22" ry="18"/>
<text text-anchor="middle" x="14347.1" y="-101.3" font-family="Times,serif" font-size="14.00">device_model:{0,1,2,3,4,5,6,7,8,9,10,11,12,13,14,15,16,17,18,19,20,21,22,23,24,25,26,27,28,29,30,31,32,33,34,35,36,37,38,39,40,41,42,43,44,45,46,47,48,49,50,51,52,53,54,55,56,57,58,59,60,61,62,63,64,65,66,67,68,69,70,71,72,73,74,75,76,77,78,79,80,81,82,83,84,85,86,87,88,89,90,91,92,93,94,95,96,97,98,99,100,101,102,103,104,105,106,107,108,109,110,111,112,113,114,115,116,117,118,119,120,121,122,123,124,125,126,127,128,129,130,131,132,133,134,135,136,137,138,139,140,141,142,143,144,145,146,147,148,149,150,151,152,153,154,155,156,157,158,159,160,161,162,163,164,165,166,167,168,169,170,171,172,173,174,175,176,177,178,179,180,181,182,183,184,185,186,187,188,189,190,191,192,193,194,195,196,197,198,199,200,201,202,203,204,205,206,207,208,209,210,211,212,213,214,215,216,217,218,219,220,221,222,223,224,225,226,227,228,229,230,231,232,233,234,235,236,237,238,239,240,241,242}</text>
</g>
<!-- 16&#45;&gt;26 -->
<g id="edge28" class="edge">
<title>16&#45;&gt;26</title>
<path fill="none" stroke="#0000ff" d="M9965.46,-188.97C10429.44,-180.18 12290.33,-144.95 13432.53,-123.32"/>
<polygon fill="#0000ff" stroke="#0000ff" points="13432.39,-126.82 13442.32,-123.13 13432.26,-119.82 13432.39,-126.82"/>
<text text-anchor="middle" x="12412.1" y="-144.8" font-family="Times,serif" font-size="14.00">no, missing</text>
</g>
<!-- 29 -->
<g id="node24" class="node">
<title>29</title>
<ellipse fill="none" stroke="black" cx="8889.1" cy="-18" rx="96.68" ry="18"/>
<text text-anchor="middle" x="8889.1" y="-14.3" font-family="Times,serif" font-size="14.00">leaf=0.458823562</text>
</g>
<!-- 23&#45;&gt;29 -->
<g id="edge23" class="edge">
<title>23&#45;&gt;29</title>
<path fill="none" stroke="#ff0000" d="M9045.58,-87.21C9014.23,-73.54 8969.85,-54.2 8936.36,-39.6"/>
<polygon fill="#ff0000" stroke="#ff0000" points="8937.85,-36.43 8927.28,-35.64 8935.05,-42.85 8937.85,-36.43"/>
<text text-anchor="middle" x="9011.6" y="-57.8" font-family="Times,serif" font-size="14.00">yes</text>
</g>
<!-- 30 -->
<g id="node25" class="node">
<title>30</title>
<ellipse fill="none" stroke="black" cx="9101.1" cy="-18" rx="96.68" ry="18"/>
<text text-anchor="middle" x="9101.1" y="-14.3" font-family="Times,serif" font-size="14.00">leaf=0.116666675</text>
</g>
<!-- 23&#45;&gt;30 -->
<g id="edge24" class="edge">
<title>23&#45;&gt;30</title>
<path fill="none" stroke="#0000ff" d="M9087.54,-86.8C9089.79,-75.58 9092.77,-60.67 9095.37,-47.69"/>
<polygon fill="#0000ff" stroke="#0000ff" points="9098.78,-48.44 9097.31,-37.95 9091.92,-47.07 9098.78,-48.44"/>
<text text-anchor="middle" x="9135.1" y="-57.8" font-family="Times,serif" font-size="14.00">no, missing</text>
</g>
<!-- 31 -->
<g id="node26" class="node">
<title>31</title>
<ellipse fill="none" stroke="black" cx="9325.1" cy="-18" rx="44.39" ry="18"/>
<text text-anchor="middle" x="9325.1" y="-14.3" font-family="Times,serif" font-size="14.00">leaf=&#45;0</text>
</g>
<!-- 24&#45;&gt;31 -->
<g id="edge25" class="edge">
<title>24&#45;&gt;31</title>
<path fill="none" stroke="#ff0000" d="M9392.9,-86.8C9380.25,-74.15 9362.89,-56.79 9348.91,-42.81"/>
<polygon fill="#ff0000" stroke="#ff0000" points="9351.74,-40.69 9342.2,-36.1 9346.79,-45.64 9351.74,-40.69"/>
<text text-anchor="middle" x="9382.1" y="-57.8" font-family="Times,serif" font-size="14.00">no</text>
</g>
<!-- 32 -->
<g id="node27" class="node">
<title>32</title>
<ellipse fill="none" stroke="black" cx="9487.1" cy="-18" rx="100.18" ry="18"/>
<text text-anchor="middle" x="9487.1" y="-14.3" font-family="Times,serif" font-size="14.00">leaf=&#45;0.400000036</text>
</g>
<!-- 24&#45;&gt;32 -->
<g id="edge26" class="edge">
<title>24&#45;&gt;32</title>
<path fill="none" stroke="#0000ff" d="M9425.68,-86.8C9436.64,-74.7 9451.5,-58.3 9463.85,-44.67"/>
<polygon fill="#0000ff" stroke="#0000ff" points="9466.41,-47.06 9470.53,-37.3 9461.22,-42.36 9466.41,-47.06"/>
<text text-anchor="middle" x="9498.6" y="-57.8" font-family="Times,serif" font-size="14.00">yes, missing</text>
</g>
<!-- 33 -->
<g id="node30" class="node">
<title>33</title>
<ellipse fill="none" stroke="black" cx="9734.1" cy="-18" rx="96.68" ry="18"/>
<text text-anchor="middle" x="9734.1" y="-14.3" font-family="Times,serif" font-size="14.00">leaf=0.457142889</text>
</g>
<!-- 25&#45;&gt;33 -->
<g id="edge29" class="edge">
<title>25&#45;&gt;33</title>
<path fill="none" stroke="#ff0000" d="M9746.86,-86.8C9744.75,-75.58 9741.95,-60.67 9739.5,-47.69"/>
<polygon fill="#ff0000" stroke="#ff0000" points="9742.96,-47.13 9737.67,-37.95 9736.08,-48.43 9742.96,-47.13"/>
<text text-anchor="middle" x="9755.6" y="-57.8" font-family="Times,serif" font-size="14.00">yes</text>
</g>
<!-- 34 -->
<g id="node31" class="node">
<title>34</title>
<ellipse fill="none" stroke="black" cx="9952.1" cy="-18" rx="102.88" ry="18"/>
<text text-anchor="middle" x="9952.1" y="-14.3" font-family="Times,serif" font-size="14.00">leaf=0.0666666701</text>
</g>
<!-- 25&#45;&gt;34 -->
<g id="edge30" class="edge">
<title>25&#45;&gt;34</title>
<path fill="none" stroke="#0000ff" d="M9790.01,-87.21C9822.63,-73.48 9868.85,-54.03 9903.6,-39.41"/>
<polygon fill="#0000ff" stroke="#0000ff" points="9904.73,-42.73 9912.59,-35.63 9902.02,-36.28 9904.73,-42.73"/>
<text text-anchor="middle" x="9905.1" y="-57.8" font-family="Times,serif" font-size="14.00">no, missing</text>
</g>
<!-- 35 -->
<g id="node32" class="node">
<title>35</title>
<ellipse fill="none" stroke="black" cx="14242.1" cy="-18" rx="94.48" ry="18"/>
<text text-anchor="middle" x="14242.1" y="-14.3" font-family="Times,serif" font-size="14.00">leaf=&#45;0.24000001</text>
</g>
<!-- 26&#45;&gt;35 -->
<g id="edge31" class="edge">
<title>26&#45;&gt;35</title>
<path fill="none" stroke="#ff0000" d="M14325.6,-86.59C14309.97,-73.94 14288.62,-56.66 14271.42,-42.73"/>
<polygon fill="#ff0000" stroke="#ff0000" points="14274.01,-40.33 14264.04,-36.76 14269.61,-45.77 14274.01,-40.33"/>
<text text-anchor="middle" x="14309.1" y="-57.8" font-family="Times,serif" font-size="14.00">no</text>
</g>
<!-- 36 -->
<g id="node33" class="node">
<title>36</title>
<ellipse fill="none" stroke="black" cx="14451.1" cy="-18" rx="96.68" ry="18"/>
<text text-anchor="middle" x="14451.1" y="-14.3" font-family="Times,serif" font-size="14.00">leaf=0.280000001</text>
</g>
<!-- 26&#45;&gt;36 -->
<g id="edge32" class="edge">
<title>26&#45;&gt;36</title>
<path fill="none" stroke="#0000ff" d="M14368.4,-86.59C14383.88,-73.94 14405.03,-56.66 14422.06,-42.73"/>
<polygon fill="#0000ff" stroke="#0000ff" points="14423.84,-45.8 14429.37,-36.76 14419.41,-40.38 14423.84,-45.8"/>
<text text-anchor="middle" x="14449.6" y="-57.8" font-family="Times,serif" font-size="14.00">yes, missing</text>
</g>
<!-- 27 -->
<g id="node36" class="node">
<title>27</title>
<ellipse fill="none" stroke="black" cx="18930.1" cy="-105" rx="148.67" ry="18"/>
<text text-anchor="middle" x="18930.1" y="-101.3" font-family="Times,serif" font-size="14.00">Chat Conversation Started&lt;8</text>
</g>
<!-- 18&#45;&gt;27 -->
<g id="edge35" class="edge">
<title>18&#45;&gt;27</title>
<path fill="none" stroke="#ff0000" d="M18930.1,-173.8C18930.1,-162.58 18930.1,-147.67 18930.1,-134.69"/>
<polygon fill="#ff0000" stroke="#ff0000" points="18933.6,-134.98 18930.1,-124.98 18926.6,-134.98 18933.6,-134.98"/>
<text text-anchor="middle" x="18942.6" y="-144.8" font-family="Times,serif" font-size="14.00">yes</text>
</g>
<!-- 28 -->
<g id="node37" class="node">
<title>28</title>
<ellipse fill="none" stroke="black" cx="19200.1" cy="-105" rx="102.88" ry="18"/>
<text text-anchor="middle" x="19200.1" y="-101.3" font-family="Times,serif" font-size="14.00">leaf=0.0666666701</text>
</g>
<!-- 18&#45;&gt;28 -->
<g id="edge36" class="edge">
<title>18&#45;&gt;28</title>
<path fill="none" stroke="#0000ff" d="M18982.48,-174.51C19027.87,-160.22 19093.49,-139.56 19140.8,-124.67"/>
<polygon fill="#0000ff" stroke="#0000ff" points="19141.57,-128.1 19150.06,-121.75 19139.47,-121.42 19141.57,-128.1"/>
<text text-anchor="middle" x="19122.1" y="-144.8" font-family="Times,serif" font-size="14.00">no, missing</text>
</g>
<!-- 37 -->
<g id="node38" class="node">
<title>37</title>
<ellipse fill="none" stroke="black" cx="18849.1" cy="-18" rx="100.18" ry="18"/>
<text text-anchor="middle" x="18849.1" y="-14.3" font-family="Times,serif" font-size="14.00">leaf=&#45;0.327272743</text>
</g>
<!-- 27&#45;&gt;37 -->
<g id="edge37" class="edge">
<title>27&#45;&gt;37</title>
<path fill="none" stroke="#ff0000" d="M18913.71,-86.8C18902.07,-74.59 18886.26,-57.99 18873.19,-44.28"/>
<polygon fill="#ff0000" stroke="#ff0000" points="18875.95,-42.1 18866.51,-37.27 18870.88,-46.93 18875.95,-42.1"/>
<text text-anchor="middle" x="18906.6" y="-57.8" font-family="Times,serif" font-size="14.00">yes</text>
</g>
<!-- 38 -->
<g id="node39" class="node">
<title>38</title>
<ellipse fill="none" stroke="black" cx="19011.1" cy="-18" rx="44.39" ry="18"/>
<text text-anchor="middle" x="19011.1" y="-14.3" font-family="Times,serif" font-size="14.00">leaf=&#45;0</text>
</g>
<!-- 27&#45;&gt;38 -->
<g id="edge38" class="edge">
<title>27&#45;&gt;38</title>
<path fill="none" stroke="#0000ff" d="M18946.49,-86.8C18958.36,-74.35 18974.57,-57.34 18987.79,-43.47"/>
<polygon fill="#0000ff" stroke="#0000ff" points="18990.15,-46.06 18994.52,-36.41 18985.08,-41.23 18990.15,-46.06"/>
<text text-anchor="middle" x="19016.1" y="-57.8" font-family="Times,serif" font-size="14.00">no, missing</text>
</g>
</g>
</svg>
